<?xml version="1.0" encoding="UTF-8"?>
<svg xmlns="http://www.w3.org/2000/svg" xmlns:xlink="http://www.w3.org/1999/xlink" width="800px" height="800px" viewBox="0 0 800 800" version="1.1">
<defs>
<linearGradient id="linear0" gradientUnits="userSpaceOnUse" x1="0.12959" y1="0.12039" x2="0.79639" y2="0.78201" gradientTransform="matrix(591.757473,0,0,595.433594,0.451432,0.226562)">
<stop offset="0" style="stop-color:rgb(21.960784%,49.411765%,72.156863%);stop-opacity:1;"/>
<stop offset="1" style="stop-color:rgb(21.176471%,41.176471%,58.039216%);stop-opacity:1;"/>
</linearGradient>
<linearGradient id="linear1" gradientUnits="userSpaceOnUse" x1="0.19128" y1="0.20579" x2="0.90742" y2="0.88429" gradientTransform="matrix(591.765255,0,0,595.433594,206.681974,201.824219)">
<stop offset="0" style="stop-color:rgb(100%,87.843137%,32.156863%);stop-opacity:1;"/>
<stop offset="1" style="stop-color:rgb(100%,76.470588%,19.215686%);stop-opacity:1;"/>
</linearGradient>
</defs>
<g id="surface1">
<path style=" stroke:none;fill-rule:nonzero;fill:url(#linear0);" d="M 396.574219 0.226562 C 193.992188 0.226562 206.644531 88.429688 206.644531 88.429688 L 206.867188 179.8125 L 400.1875 179.8125 L 400.1875 207.246094 L 130.085938 207.246094 C 130.085938 207.246094 0.449219 192.484375 0.449219 397.710938 C 0.449219 602.941406 113.597656 595.660156 113.597656 595.660156 L 181.125 595.660156 L 181.125 500.425781 C 181.125 500.425781 177.484375 386.828125 292.460938 386.828125 L 484.199219 386.828125 C 484.199219 386.828125 591.925781 388.574219 591.925781 282.296875 L 591.925781 106.574219 C 591.925781 106.574219 608.285156 0.226562 396.574219 0.226562 Z M 289.976562 61.679688 C 299.207031 61.671875 308.054688 65.347656 314.578125 71.894531 C 321.101562 78.445312 324.765625 87.332031 324.757812 96.597656 C 324.765625 105.859375 321.101562 114.746094 314.578125 121.296875 C 308.054688 127.847656 299.207031 131.523438 289.976562 131.515625 C 280.753906 131.523438 271.902344 127.847656 265.382812 121.296875 C 258.851562 114.746094 255.191406 105.859375 255.199219 96.597656 C 255.191406 87.332031 258.851562 78.445312 265.382812 71.894531 C 271.902344 65.347656 280.753906 61.671875 289.976562 61.679688 Z M 289.976562 61.679688 "/>
<path style=" stroke:none;fill-rule:nonzero;fill:url(#linear1);" d="M 402.328125 797.257812 C 604.90625 797.257812 592.257812 709.054688 592.257812 709.054688 L 592.035156 617.675781 L 398.710938 617.675781 L 398.710938 590.238281 L 668.816406 590.238281 C 668.816406 590.238281 798.445312 605 798.445312 399.769531 C 798.445312 194.542969 685.300781 201.824219 685.300781 201.824219 L 617.777344 201.824219 L 617.777344 297.054688 C 617.777344 297.054688 621.414062 410.652344 506.4375 410.652344 L 314.699219 410.652344 C 314.699219 410.652344 206.976562 408.90625 206.976562 515.1875 L 206.976562 690.914062 C 206.976562 690.914062 190.617188 797.257812 402.320312 797.257812 Z M 508.925781 735.8125 C 499.695312 735.820312 490.847656 732.144531 484.324219 725.59375 C 477.796875 719.042969 474.136719 710.15625 474.148438 700.894531 C 474.136719 691.628906 477.796875 682.742188 484.320312 676.191406 C 490.847656 669.640625 499.695312 665.964844 508.925781 665.972656 C 518.148438 665.964844 527 669.640625 533.527344 676.191406 C 540.050781 682.742188 543.710938 691.628906 543.703125 700.890625 C 543.710938 710.152344 540.050781 719.039062 533.527344 725.589844 C 527 732.140625 518.148438 735.816406 508.925781 735.808594 Z M 508.925781 735.8125 "/>
</g>
</svg>
