<?xml version="1.0" encoding="UTF-8"?>
<svg xmlns="http://www.w3.org/2000/svg" xmlns:xlink="http://www.w3.org/1999/xlink" width="550px" height="550px" viewBox="0 0 550 550" version="1.1">
<defs>
<filter id="alpha" filterUnits="objectBoundingBox" x="0%" y="0%" width="100%" height="100%">
  <feColorMatrix type="matrix" in="SourceGraphic" values="0 0 0 0 1 0 0 0 0 1 0 0 0 0 1 0 0 0 1 0"/>
</filter>
<mask id="mask0">
  <g filter="url(#alpha)">
<rect x="0" y="0" width="550" height="550" style="fill:rgb(0%,0%,0%);fill-opacity:0.14902;stroke:none;"/>
  </g>
</mask>
<clipPath id="clip1">
  <rect x="0" y="0" width="550" height="550"/>
</clipPath>
<g id="surface5" clip-path="url(#clip1)">
<path style=" stroke:none;fill-rule:evenodd;fill:rgb(100%,100%,100%);fill-opacity:1;" d="M 271.292969 546.597656 L 275 546.597656 C 424.382812 546.597656 545.492188 513.382812 545.492188 472.390625 L 545.492188 77.609375 L 271.292969 77.609375 L 271.292969 546.605469 Z M 271.292969 546.597656 "/>
</g>
</defs>
<g id="surface1">
<path style=" stroke:none;fill-rule:evenodd;fill:rgb(0%,44.705882%,77.647059%);fill-opacity:1;" d="M 4.507812 77.605469 L 4.507812 472.382812 C 4.507812 513.375 125.617188 546.605469 275 546.605469 L 275 77.605469 Z M 4.507812 77.605469 "/>
<path style=" stroke:none;fill-rule:evenodd;fill:rgb(0%,44.705882%,77.647059%);fill-opacity:1;" d="M 271.292969 546.597656 L 275 546.597656 C 424.382812 546.597656 545.492188 513.382812 545.492188 472.390625 L 545.492188 77.609375 L 271.292969 77.609375 L 271.292969 546.605469 Z M 271.292969 546.597656 "/>
<use xlink:href="#surface5" mask="url(#mask0)"/>
<path style=" stroke:none;fill-rule:evenodd;fill:rgb(100%,100%,100%);fill-opacity:1;" d="M 545.492188 77.605469 C 545.492188 118.589844 424.382812 151.8125 275 151.8125 C 125.617188 151.8125 4.507812 118.589844 4.507812 77.605469 C 4.507812 36.617188 125.617188 3.394531 275 3.394531 C 424.382812 3.394531 545.492188 36.617188 545.492188 77.605469 "/>
<path style=" stroke:none;fill-rule:evenodd;fill:rgb(49.803922%,72.941176%,0%);fill-opacity:1;" d="M 490.183594 73.328125 C 490.183594 100.386719 393.84375 122.289062 275 122.289062 C 156.15625 122.289062 59.796875 100.386719 59.796875 73.328125 C 59.796875 46.269531 156.15625 24.363281 275 24.363281 C 393.84375 24.363281 490.183594 46.28125 490.183594 73.328125 "/>
<path style=" stroke:none;fill-rule:evenodd;fill:rgb(72.156863%,83.137255%,19.607843%);fill-opacity:1;" d="M 445.113281 103.257812 C 473.28125 94.980469 490.210938 84.617188 490.210938 73.355469 C 490.203125 46.296875 393.863281 24.375 275 24.375 C 156.136719 24.375 59.816406 46.296875 59.816406 73.355469 C 59.816406 84.613281 76.738281 94.980469 104.914062 103.257812 C 144.253906 91.6875 205.734375 84.226562 275.007812 84.226562 C 344.28125 84.226562 405.746094 91.6875 445.113281 103.257812 "/>
<path style=" stroke:none;fill-rule:evenodd;fill:rgb(100%,100%,100%);fill-opacity:1;" d="M 189.09375 351.640625 C 189.09375 363.910156 183.222656 373.410156 171.464844 380.136719 C 159.707031 386.867188 143.496094 390.242188 122.785156 390.242188 C 105.167969 390.242188 90.445312 387.839844 78.613281 383.023438 L 78.613281 354.160156 C 92.265625 362.9375 107.304688 367.332031 123.730469 367.332031 C 131.667969 367.332031 137.804688 366.128906 142.132812 363.71875 C 146.460938 361.308594 148.625 358.132812 148.625 354.152344 C 148.625 350.25 146.542969 346.851562 142.378906 343.96875 C 138.210938 341.082031 129.738281 337.355469 116.960938 332.785156 C 90.921875 323.535156 77.910156 310.894531 77.910156 294.914062 C 77.910156 283.316406 83.582031 274.015625 94.941406 267.007812 C 106.304688 260 121.371094 256.503906 140.167969 256.503906 C 156.839844 256.503906 170.636719 258.167969 181.609375 261.46875 L 181.609375 288.429688 C 170.101562 282.414062 157.003906 279.414062 142.324219 279.414062 C 134.949219 279.414062 129.113281 280.59375 124.832031 282.964844 C 120.695312 285.117188 118.28125 288.695312 118.414062 292.476562 C 118.414062 296.566406 120.132812 299.917969 123.597656 302.535156 C 127.058594 305.148438 134.128906 308.378906 144.839844 312.230469 C 160.796875 317.949219 172.160156 323.738281 178.957031 329.632812 C 185.753906 335.527344 189.101562 342.875 189.101562 351.640625 Z M 372.753906 322.429688 C 372.753906 337.640625 368.183594 350.84375 359.058594 362.015625 C 349.933594 373.183594 337.078125 381.035156 320.496094 385.550781 L 370.003906 420.269531 L 320.019531 420.269531 L 284.664062 390.234375 C 269.507812 389.820312 255.832031 386.777344 243.648438 381.128906 C 231.46875 375.480469 222.054688 367.738281 215.4375 357.90625 C 208.820312 348.074219 205.492188 337.117188 205.492188 325.035156 C 205.492188 311.632812 209.082031 299.683594 216.257812 289.191406 C 223.433594 278.699219 233.535156 270.628906 246.554688 264.976562 C 259.574219 259.328125 274.476562 256.503906 291.320312 256.503906 C 307.015625 256.503906 321.09375 259.238281 333.515625 264.714844 C 345.941406 270.1875 355.570312 277.960938 362.441406 288.0625 C 369.3125 298.167969 372.753906 309.621094 372.753906 322.421875 Z M 332.289062 324.058594 C 332.289062 310.945312 328.519531 300.597656 320.972656 292.988281 C 313.429688 285.375 303.121094 281.574219 290.019531 281.574219 C 276.6875 281.574219 266.019531 285.390625 257.996094 293.015625 C 249.96875 300.640625 245.976562 310.8125 245.976562 323.496094 C 245.976562 336.125 249.898438 346.203125 257.75 353.746094 C 265.605469 361.289062 276.035156 365.058594 289.054688 365.058594 C 302.320312 365.058594 312.824219 361.40625 320.605469 354.105469 C 328.386719 346.804688 332.289062 336.789062 332.289062 324.050781 Z M 502.636719 387.980469 L 400.976562 387.980469 L 400.976562 258.675781 L 439.421875 258.675781 L 439.421875 364.359375 L 502.628906 364.359375 Z M 502.636719 387.980469 "/>
</g>
</svg>
